<svg xmlns="http://www.w3.org/2000/svg" xmlns:xlink="http://www.w3.org/1999/xlink" width="500" zoomAndPan="magnify"
    viewBox="0 0 375 374.999991" height="500" preserveAspectRatio="xMidYMid meet" version="1.0">
    <defs>
        <g />
        <clipPath id="8990c36755">
            <path d="M 120 138 L 147.742188 138 L 147.742188 242 L 120 242 Z M 120 138 " clip-rule="nonzero" />
        </clipPath>
        <clipPath id="cd97515fe1">
            <path d="M 89 130 L 132 130 L 132 251.847656 L 89 251.847656 Z M 89 130 " clip-rule="nonzero" />
        </clipPath>
        <clipPath id="8a7f73c369">
            <path d="M 89 122.847656 L 116 122.847656 L 116 210 L 89 210 Z M 89 122.847656 " clip-rule="nonzero" />
        </clipPath>
        <clipPath id="70a334133c">
            <path d="M 111 129 L 147.742188 129 L 147.742188 243 L 111 243 Z M 111 129 " clip-rule="nonzero" />
        </clipPath>
        <clipPath id="dcac6c30c5">
            <path d="M 89 138 L 132 138 L 132 251.847656 L 89 251.847656 Z M 89 138 " clip-rule="nonzero" />
        </clipPath>
        <clipPath id="f1394cd8cb">
            <path d="M 54 130 L 96 130 L 96 251.847656 L 54 251.847656 Z M 54 130 " clip-rule="nonzero" />
        </clipPath>
        <clipPath id="fb296ab2c2">
            <path d="M 69 122.847656 L 97 122.847656 L 97 210 L 69 210 Z M 69 122.847656 " clip-rule="nonzero" />
        </clipPath>
        <clipPath id="46f59e4d9c">
            <path d="M 37.5 129 L 74 129 L 74 243 L 37.5 243 Z M 37.5 129 " clip-rule="nonzero" />
        </clipPath>
        <clipPath id="b2560a73fb">
            <path d="M 53 138 L 97 138 L 97 251.847656 L 53 251.847656 Z M 53 138 " clip-rule="nonzero" />
        </clipPath>
    </defs>
    <path fill="#000"
        d="M 114.933594 155.144531 L 105.875 155.335938 L 114.515625 148.945312 L 111.96875 130.496094 L 111.964844 130.496094 L 111.640625 128.132812 C 111.640625 128.132812 103.15625 124.144531 102.058594 123.621094 C 102.0625 124.160156 102.164062 127.40625 102.15625 127.957031 C 102.125 133.0625 101.964844 138.523438 101.621094 144.183594 C 101.433594 147.273438 101.1875 150.417969 100.878906 153.601562 C 99.414062 168.621094 96.882812 182.097656 93.957031 193.835938 C 93.730469 194.753906 93.5 195.65625 93.265625 196.550781 C 92.132812 200.914062 90.945312 205.027344 89.75 208.871094 Z M 114.933594 155.144531 "
        fill-opacity="1" fill-rule="nonzero" />
    <g clip-path="url(#8990c36755)">
        <path fill="#000"
            d="M 120.542969 181.015625 L 127.648438 197.410156 L 133.828125 241.734375 L 147.1875 239.636719 L 142.511719 192.488281 L 131.195312 138.519531 Z M 120.542969 181.015625 "
            fill-opacity="1" fill-rule="nonzero" />
    </g>
    <g clip-path="url(#cd97515fe1)">
        <path fill="#000"
            d="M 89.75 208.871094 L 89.75 237.246094 C 89.75 245.5625 96.878906 252.085938 105.164062 251.351562 L 127.792969 249.34375 L 120.542969 181.015625 L 131.195312 138.519531 L 111.96875 130.496094 L 114.515625 148.945312 L 105.875 155.335938 L 114.933594 155.144531 Z M 89.75 208.871094 "
            fill-opacity="1" fill-rule="nonzero" />
    </g>
    <g clip-path="url(#8a7f73c369)">
        <path fill="#ffffff"
            d="M 89.75 209.605469 C 89.664062 209.605469 89.574219 209.589844 89.484375 209.558594 C 89.125 209.417969 88.933594 209.023438 89.050781 208.65625 C 90.308594 204.605469 91.488281 200.472656 92.554688 196.367188 C 92.78125 195.503906 93.011719 194.59375 93.242188 193.660156 C 96.507812 180.578125 98.828125 167.074219 100.148438 153.53125 C 100.449219 150.445312 100.695312 147.285156 100.886719 144.140625 C 101.210938 138.875 101.386719 133.425781 101.421875 127.953125 C 101.425781 127.65625 101.394531 126.496094 101.367188 125.472656 C 101.34375 124.613281 101.324219 123.871094 101.324219 123.625 C 101.324219 123.371094 101.453125 123.136719 101.667969 123 C 101.878906 122.867188 102.148438 122.851562 102.375 122.957031 C 103.460938 123.476562 111.867188 127.425781 111.953125 127.46875 C 112.175781 127.574219 112.332031 127.785156 112.367188 128.03125 L 115.246094 148.847656 C 115.28125 149.113281 115.167969 149.378906 114.953125 149.539062 L 108.171875 154.554688 L 114.921875 154.414062 C 115.171875 154.40625 115.414062 154.535156 115.550781 154.746094 C 115.6875 154.960938 115.707031 155.230469 115.601562 155.460938 L 90.417969 209.1875 C 90.292969 209.449219 90.027344 209.605469 89.75 209.605469 Z M 102.820312 124.792969 C 102.824219 124.996094 102.828125 125.214844 102.835938 125.433594 C 102.863281 126.519531 102.890625 127.644531 102.890625 127.960938 C 102.855469 133.460938 102.675781 138.933594 102.355469 144.230469 C 102.160156 147.390625 101.910156 150.566406 101.609375 153.667969 C 100.28125 167.285156 97.949219 180.859375 94.667969 194.011719 C 94.433594 194.949219 94.203125 195.867188 93.976562 196.734375 C 93.695312 197.808594 93.410156 198.882812 93.117188 199.960938 L 113.765625 155.902344 L 105.890625 156.070312 C 105.570312 156.078125 105.285156 155.875 105.179688 155.574219 C 105.078125 155.269531 105.183594 154.9375 105.441406 154.746094 L 113.730469 148.613281 L 110.964844 128.625 C 109.644531 128.003906 105.027344 125.832031 102.820312 124.792969 Z M 102.820312 124.792969 "
            fill-opacity="1" fill-rule="nonzero" />
    </g>
    <g clip-path="url(#70a334133c)">
        <path fill="#ffffff"
            d="M 133.828125 242.46875 C 133.671875 242.46875 133.519531 242.421875 133.390625 242.324219 C 133.234375 242.207031 133.128906 242.03125 133.101562 241.835938 L 126.9375 197.613281 L 119.867188 181.308594 L 121.214844 180.722656 L 128.324219 197.121094 C 128.347656 197.179688 128.367188 197.246094 128.375 197.308594 L 134.453125 240.894531 L 146.386719 239.019531 L 141.785156 192.597656 L 130.554688 139.050781 L 111.683594 131.175781 L 112.25 129.820312 L 131.476562 137.84375 C 131.703125 137.9375 131.863281 138.132812 131.914062 138.371094 L 143.230469 192.335938 C 143.234375 192.363281 143.242188 192.390625 143.242188 192.414062 L 147.917969 239.566406 C 147.957031 239.953125 147.6875 240.304688 147.300781 240.363281 L 133.941406 242.460938 C 133.90625 242.46875 133.867188 242.46875 133.828125 242.46875 Z M 133.828125 242.46875 "
            fill-opacity="1" fill-rule="nonzero" />
    </g>
    <g clip-path="url(#dcac6c30c5)">
        <path fill="#ffffff"
            d="M 103.917969 252.140625 C 100.214844 252.140625 96.609375 250.75 93.855469 248.234375 C 90.78125 245.417969 89.015625 241.414062 89.015625 237.246094 L 89.015625 208.871094 L 90.484375 208.871094 L 90.484375 237.246094 C 90.484375 241.003906 92.074219 244.613281 94.847656 247.148438 C 97.617188 249.6875 101.355469 250.949219 105.097656 250.617188 L 126.984375 248.675781 L 119.8125 181.09375 C 119.800781 181.007812 119.808594 180.921875 119.828125 180.835938 L 130.484375 138.34375 L 131.90625 138.699219 L 121.285156 181.070312 L 128.523438 249.265625 C 128.542969 249.460938 128.484375 249.65625 128.359375 249.808594 C 128.234375 249.960938 128.054688 250.058594 127.859375 250.074219 L 105.226562 252.082031 C 104.789062 252.121094 104.355469 252.140625 103.917969 252.140625 Z M 103.917969 252.140625 "
            fill-opacity="1" fill-rule="nonzero" />
    </g>
    <path fill="#000"
        d="M 70.347656 155.144531 L 79.40625 155.335938 L 70.765625 148.945312 L 73.316406 130.496094 L 73.644531 128.132812 C 73.644531 128.132812 82.125 124.144531 83.226562 123.621094 C 83.222656 124.160156 83.121094 127.40625 83.125 127.957031 C 83.15625 133.0625 83.316406 138.523438 83.660156 144.183594 C 83.851562 147.273438 84.09375 150.417969 84.40625 153.601562 C 85.867188 168.621094 88.398438 182.097656 91.328125 193.835938 C 91.554688 194.753906 91.785156 195.65625 92.019531 196.550781 C 93.152344 200.914062 94.335938 205.027344 95.53125 208.871094 Z M 70.347656 155.144531 "
        fill-opacity="1" fill-rule="nonzero" />
    <path fill="#000"
        d="M 64.742188 181.015625 L 57.632812 197.410156 L 51.453125 241.734375 L 38.292969 239.636719 L 42.769531 192.488281 L 54.085938 138.519531 Z M 64.742188 181.015625 "
        fill-opacity="1" fill-rule="nonzero" />
    <g clip-path="url(#f1394cd8cb)">
        <path fill="#000"
            d="M 95.53125 208.871094 L 95.53125 237.246094 C 95.53125 245.5625 88.402344 252.085938 80.121094 251.351562 L 57.488281 249.34375 L 64.738281 181.015625 L 54.085938 138.519531 L 73.316406 130.496094 L 70.765625 148.945312 L 79.40625 155.335938 L 70.347656 155.144531 Z M 95.53125 208.871094 "
            fill-opacity="1" fill-rule="nonzero" />
    </g>
    <g clip-path="url(#fb296ab2c2)">
        <path fill="#ffffff"
            d="M 95.53125 209.605469 C 95.253906 209.605469 94.992188 209.449219 94.867188 209.183594 L 69.683594 155.457031 C 69.574219 155.226562 69.59375 154.957031 69.734375 154.746094 C 69.871094 154.53125 70.113281 154.398438 70.363281 154.410156 L 77.113281 154.554688 L 70.332031 149.539062 C 70.113281 149.378906 70.003906 149.113281 70.039062 148.847656 L 72.917969 128.027344 C 72.953125 127.78125 73.109375 127.570312 73.332031 127.464844 C 73.417969 127.425781 81.824219 123.472656 82.910156 122.957031 C 83.136719 122.847656 83.40625 122.863281 83.617188 123 C 83.832031 123.132812 83.960938 123.367188 83.960938 123.621094 C 83.957031 123.867188 83.9375 124.613281 83.917969 125.472656 C 83.890625 126.496094 83.859375 127.65625 83.863281 127.949219 C 83.894531 133.425781 84.074219 138.871094 84.394531 144.140625 C 84.585938 147.28125 84.835938 150.441406 85.136719 153.527344 C 86.453125 167.074219 88.777344 180.574219 92.042969 193.65625 C 92.273438 194.59375 92.503906 195.503906 92.730469 196.363281 C 93.796875 200.472656 94.976562 204.605469 96.234375 208.652344 C 96.347656 209.023438 96.160156 209.417969 95.796875 209.554688 C 95.710938 209.589844 95.621094 209.605469 95.53125 209.605469 Z M 71.515625 155.90625 L 92.167969 199.960938 C 91.871094 198.886719 91.585938 197.808594 91.304688 196.734375 C 91.082031 195.871094 90.847656 194.953125 90.613281 194.011719 C 87.332031 180.859375 85 167.289062 83.671875 153.671875 C 83.371094 150.566406 83.121094 147.390625 82.929688 144.230469 C 82.605469 138.933594 82.425781 133.460938 82.394531 127.960938 C 82.390625 127.644531 82.417969 126.523438 82.449219 125.4375 C 82.453125 125.214844 82.457031 124.996094 82.464844 124.792969 C 80.257812 125.832031 75.640625 128.003906 74.316406 128.625 L 71.554688 148.617188 L 79.84375 154.746094 C 80.101562 154.9375 80.207031 155.273438 80.101562 155.574219 C 80 155.878906 79.710938 156.082031 79.390625 156.070312 Z M 71.515625 155.90625 "
            fill-opacity="1" fill-rule="nonzero" />
    </g>
    <g clip-path="url(#46f59e4d9c)">
        <path fill="#ffffff"
            d="M 51.453125 242.46875 C 51.414062 242.46875 51.375 242.46875 51.339844 242.460938 L 38.175781 240.363281 C 37.792969 240.300781 37.523438 239.953125 37.5625 239.570312 L 42.039062 192.417969 C 42.039062 192.390625 42.042969 192.363281 42.050781 192.335938 L 53.367188 138.371094 C 53.417969 138.132812 53.578125 137.9375 53.800781 137.84375 L 73.03125 129.816406 L 73.597656 131.171875 L 54.726562 139.050781 L 43.496094 192.597656 L 39.089844 239.019531 L 50.832031 240.894531 L 56.90625 197.308594 C 56.914062 197.242188 56.933594 197.179688 56.957031 197.121094 L 64.066406 180.722656 L 65.414062 181.308594 L 58.347656 197.613281 L 52.179688 241.835938 C 52.152344 242.03125 52.050781 242.207031 51.890625 242.328125 C 51.761719 242.421875 51.609375 242.46875 51.453125 242.46875 Z M 51.453125 242.46875 "
            fill-opacity="1" fill-rule="nonzero" />
    </g>
    <g clip-path="url(#b2560a73fb)">
        <path fill="#ffffff"
            d="M 81.363281 252.140625 C 80.929688 252.140625 80.492188 252.121094 80.054688 252.082031 L 57.425781 250.074219 C 57.230469 250.058594 57.046875 249.960938 56.921875 249.808594 C 56.796875 249.65625 56.738281 249.460938 56.757812 249.265625 L 63.996094 181.070312 L 53.375 138.699219 L 54.800781 138.34375 L 65.453125 180.835938 C 65.472656 180.921875 65.480469 181.007812 65.472656 181.09375 L 58.300781 248.675781 L 80.1875 250.617188 C 83.929688 250.949219 87.664062 249.6875 90.4375 247.148438 C 93.210938 244.613281 94.796875 241.003906 94.796875 237.246094 L 94.796875 208.871094 L 96.265625 208.871094 L 96.265625 237.246094 C 96.265625 241.414062 94.503906 245.417969 91.429688 248.234375 C 88.675781 250.75 85.066406 252.140625 81.363281 252.140625 Z M 81.363281 252.140625 "
            fill-opacity="1" fill-rule="nonzero" />
    </g>
    <path fill="#ffffff"
        d="M 93.808594 213.726562 C 93.808594 214.003906 93.753906 214.269531 93.648438 214.523438 C 93.542969 214.78125 93.390625 215.007812 93.195312 215.203125 C 93 215.398438 92.773438 215.550781 92.519531 215.65625 C 92.261719 215.761719 91.996094 215.8125 91.71875 215.8125 C 91.441406 215.8125 91.175781 215.761719 90.917969 215.65625 C 90.664062 215.550781 90.4375 215.398438 90.242188 215.203125 C 90.046875 215.007812 89.894531 214.78125 89.789062 214.523438 C 89.683594 214.269531 89.628906 214.003906 89.628906 213.726562 C 89.628906 213.449219 89.683594 213.183594 89.789062 212.925781 C 89.894531 212.671875 90.046875 212.445312 90.242188 212.25 C 90.4375 212.054688 90.664062 211.902344 90.917969 211.796875 C 91.175781 211.691406 91.441406 211.636719 91.71875 211.636719 C 91.996094 211.636719 92.261719 211.691406 92.519531 211.796875 C 92.773438 211.902344 93 212.054688 93.195312 212.25 C 93.390625 212.445312 93.542969 212.671875 93.648438 212.925781 C 93.753906 213.183594 93.808594 213.449219 93.808594 213.726562 Z M 93.808594 213.726562 "
        fill-opacity="1" fill-rule="nonzero" />
    <path fill="#ffffff"
        d="M 93.808594 229.4375 C 93.808594 229.714844 93.753906 229.980469 93.648438 230.238281 C 93.542969 230.492188 93.390625 230.71875 93.195312 230.914062 C 93 231.109375 92.773438 231.261719 92.519531 231.367188 C 92.261719 231.472656 91.996094 231.527344 91.71875 231.527344 C 91.441406 231.527344 91.175781 231.472656 90.917969 231.367188 C 90.664062 231.261719 90.4375 231.109375 90.242188 230.914062 C 90.046875 230.71875 89.894531 230.492188 89.789062 230.238281 C 89.683594 229.980469 89.628906 229.714844 89.628906 229.4375 C 89.628906 229.160156 89.683594 228.894531 89.789062 228.640625 C 89.894531 228.382812 90.046875 228.15625 90.242188 227.960938 C 90.4375 227.765625 90.664062 227.613281 90.917969 227.507812 C 91.175781 227.402344 91.441406 227.347656 91.71875 227.347656 C 91.996094 227.347656 92.261719 227.402344 92.519531 227.507812 C 92.773438 227.613281 93 227.765625 93.195312 227.960938 C 93.390625 228.15625 93.542969 228.382812 93.648438 228.640625 C 93.753906 228.894531 93.808594 229.160156 93.808594 229.4375 Z M 93.808594 229.4375 "
        fill-opacity="1" fill-rule="nonzero" />
    <path fill="#ffffff"
        d="M 66.722656 211.835938 L 85.527344 213.664062 L 85.246094 216.546875 L 66.441406 214.71875 Z M 66.722656 211.835938 "
        fill-opacity="1" fill-rule="nonzero" />
    <path fill="#ffffff"
        d="M 119.042969 214.71875 L 100.242188 216.546875 L 99.960938 213.664062 L 118.761719 211.835938 Z M 119.042969 214.71875 "
        fill-opacity="1" fill-rule="nonzero" />
    <g fill="#000" fill-opacity="1">
        <g transform="translate(170.046571, 214.918711)">
            <g>
                <path
                    d="M 18.703125 -0.09375 C 18.460938 -0.03125 18.25 0 18.0625 0 C 17.882812 0 17.707031 0 17.53125 0 L 16.359375 0 C 12.492188 0 9.359375 -0.992188 6.953125 -2.984375 C 4.546875 -4.972656 2.785156 -7.625 1.671875 -10.9375 C 0.554688 -14.25 0 -17.890625 0 -21.859375 C 0 -26.015625 0.539062 -30.351562 1.625 -34.875 C 2.707031 -39.394531 4.210938 -43.703125 6.140625 -47.796875 C 8.191406 -52.066406 10.300781 -55.453125 12.46875 -57.953125 C 14.632812 -60.453125 16.800781 -62.226562 18.96875 -63.28125 C 21.132812 -64.332031 23.210938 -64.859375 25.203125 -64.859375 C 27.554688 -64.859375 29.617188 -64.300781 31.390625 -63.1875 C 33.171875 -62.082031 34.554688 -60.703125 35.546875 -59.046875 C 36.546875 -57.390625 36.953125 -55.773438 36.765625 -54.203125 C 36.648438 -53.117188 36.050781 -52.578125 34.96875 -52.578125 C 34.425781 -52.578125 33.972656 -52.769531 33.609375 -53.15625 C 33.242188 -53.550781 33.09375 -54.019531 33.15625 -54.5625 C 33.28125 -55.46875 33.007812 -56.429688 32.34375 -57.453125 C 31.675781 -58.484375 30.722656 -59.375 29.484375 -60.125 C 28.253906 -60.875 26.828125 -61.25 25.203125 -61.25 C 23.703125 -61.25 22.0625 -60.796875 20.28125 -59.890625 C 18.5 -58.992188 16.675781 -57.457031 14.8125 -55.28125 C 12.945312 -53.113281 11.140625 -50.101562 9.390625 -46.25 C 7.648438 -42.457031 6.25 -38.421875 5.1875 -34.140625 C 4.132812 -29.867188 3.609375 -25.742188 3.609375 -21.765625 C 3.609375 -18.398438 4.046875 -15.347656 4.921875 -12.609375 C 5.796875 -9.867188 7.179688 -7.679688 9.078125 -6.046875 C 10.972656 -4.421875 13.457031 -3.609375 16.53125 -3.609375 C 19.238281 -3.609375 21.898438 -4.195312 24.515625 -5.375 C 27.140625 -6.550781 29.613281 -8.117188 31.9375 -10.078125 C 34.257812 -12.035156 36.367188 -14.25 38.265625 -16.71875 C 40.160156 -19.1875 41.738281 -21.6875 43 -24.21875 C 43.363281 -24.875 43.90625 -25.203125 44.625 -25.203125 C 45.164062 -25.203125 45.601562 -25.019531 45.9375 -24.65625 C 46.269531 -24.300781 46.4375 -23.882812 46.4375 -23.40625 C 46.4375 -23.34375 46.421875 -23.234375 46.390625 -23.078125 C 46.359375 -22.929688 46.3125 -22.765625 46.25 -22.578125 C 44.207031 -18.429688 41.679688 -14.726562 38.671875 -11.46875 C 35.660156 -8.21875 32.4375 -5.597656 29 -3.609375 C 25.5625 -1.617188 22.128906 -0.445312 18.703125 -0.09375 Z M 18.703125 -0.09375 " />
            </g>
        </g>
    </g>
    <g fill="#000" fill-opacity="1">
        <g transform="translate(212.141143, 214.918711)">
            <g>
                <path
                    d="M 8.21875 -12.015625 C 5.445312 -12.015625 3.535156 -13.398438 2.484375 -16.171875 C 1.429688 -18.941406 0.90625 -22.460938 0.90625 -26.734375 C 0.90625 -30.347656 1.191406 -34.289062 1.765625 -38.5625 C 2.335938 -42.84375 3.015625 -47.132812 3.796875 -51.4375 C 4.578125 -55.75 5.328125 -59.710938 6.046875 -63.328125 C 6.171875 -63.804688 6.425781 -64.195312 6.8125 -64.5 C 7.207031 -64.800781 7.644531 -64.894531 8.125 -64.78125 C 9.269531 -64.539062 9.753906 -63.816406 9.578125 -62.609375 C 7.828125 -53.929688 6.546875 -46.582031 5.734375 -40.5625 C 4.921875 -34.539062 4.515625 -29.660156 4.515625 -25.921875 C 4.515625 -23.148438 4.691406 -21.085938 5.046875 -19.734375 C 5.410156 -18.378906 5.832031 -17.445312 6.3125 -16.9375 C 6.800781 -16.425781 7.226562 -16.050781 7.59375 -15.8125 C 7.707031 -15.75 7.820312 -15.703125 7.9375 -15.671875 C 8.0625 -15.640625 8.1875 -15.625 8.3125 -15.625 C 9.21875 -15.625 10.332031 -16.253906 11.65625 -17.515625 C 12.976562 -18.785156 14.332031 -20.382812 15.71875 -22.3125 C 17.101562 -24.238281 18.335938 -26.195312 19.421875 -28.1875 C 19.785156 -28.851562 20.328125 -29.1875 21.046875 -29.1875 C 21.171875 -29.1875 21.289062 -29.171875 21.40625 -29.140625 C 21.53125 -29.109375 21.679688 -29.0625 21.859375 -29 C 22.460938 -28.632812 22.765625 -28.09375 22.765625 -27.375 C 22.765625 -27.007812 22.703125 -26.707031 22.578125 -26.46875 C 21.921875 -25.257812 21.066406 -23.84375 20.015625 -22.21875 C 18.960938 -20.59375 17.785156 -19 16.484375 -17.4375 C 15.191406 -15.875 13.835938 -14.578125 12.421875 -13.546875 C 11.003906 -12.523438 9.601562 -12.015625 8.21875 -12.015625 Z M 8.21875 -12.015625 " />
            </g>
        </g>
    </g>
    <g fill="#000" fill-opacity="1">
        <g transform="translate(230.568807, 214.918711)">
            <g>
                <path
                    d="M -0.265625 -12.828125 C -1.710938 -13.847656 -2.4375 -15.566406 -2.4375 -17.984375 C -2.4375 -19.785156 -2 -21.769531 -1.125 -23.9375 C -0.25 -26.101562 1 -28.164062 2.625 -30.125 C 4.25 -32.082031 6.1875 -33.675781 8.4375 -34.90625 C 10.695312 -36.144531 13.242188 -36.765625 16.078125 -36.765625 C 16.554688 -36.765625 16.976562 -36.582031 17.34375 -36.21875 C 17.707031 -35.863281 17.890625 -35.445312 17.890625 -34.96875 C 17.890625 -34.476562 17.707031 -34.050781 17.34375 -33.6875 C 16.976562 -33.332031 16.554688 -33.15625 16.078125 -33.15625 C 13.671875 -33.15625 11.53125 -32.597656 9.65625 -31.484375 C 7.789062 -30.367188 6.226562 -28.984375 4.96875 -27.328125 C 3.707031 -25.671875 2.742188 -24 2.078125 -22.3125 C 1.410156 -20.625 1.078125 -19.179688 1.078125 -17.984375 C 1.078125 -16.472656 1.5625 -15.71875 2.53125 -15.71875 C 3.132812 -15.71875 3.828125 -16.019531 4.609375 -16.625 C 5.867188 -17.53125 7.070312 -18.796875 8.21875 -20.421875 C 9.363281 -22.046875 10.429688 -23.757812 11.421875 -25.5625 C 12.421875 -27.375 13.28125 -28.972656 14 -30.359375 C 14.476562 -31.078125 15.019531 -31.4375 15.625 -31.4375 C 16.289062 -31.4375 16.800781 -31.179688 17.15625 -30.671875 C 17.519531 -30.160156 17.582031 -29.570312 17.34375 -28.90625 C 17.039062 -28.0625 16.785156 -27.171875 16.578125 -26.234375 C 16.367188 -25.304688 16.203125 -24.363281 16.078125 -23.40625 C 15.898438 -22.5 15.78125 -21.679688 15.71875 -20.953125 C 15.65625 -20.234375 15.625 -19.570312 15.625 -18.96875 C 15.625 -17.769531 15.757812 -16.925781 16.03125 -16.4375 C 16.300781 -15.957031 16.679688 -15.71875 17.171875 -15.71875 C 18.066406 -15.71875 19.175781 -16.347656 20.5 -17.609375 C 21.832031 -18.878906 23.175781 -20.476562 24.53125 -22.40625 C 25.882812 -24.332031 27.039062 -26.257812 28 -28.1875 C 28.363281 -28.789062 28.90625 -29.09375 29.625 -29.09375 C 29.925781 -29.09375 30.203125 -29.03125 30.453125 -28.90625 C 31.109375 -28.550781 31.4375 -28.007812 31.4375 -27.28125 C 31.4375 -27.21875 31.421875 -27.109375 31.390625 -26.953125 C 31.359375 -26.804688 31.316406 -26.644531 31.265625 -26.46875 C 28.367188 -21.164062 25.65625 -17.429688 23.125 -15.265625 C 20.59375 -13.097656 18.425781 -12.015625 16.625 -12.015625 C 15.0625 -12.015625 13.828125 -12.691406 12.921875 -14.046875 C 12.015625 -15.398438 11.625 -17.132812 11.75 -19.25 C 11.082031 -18.15625 10.222656 -17.050781 9.171875 -15.9375 C 8.117188 -14.832031 7.019531 -13.898438 5.875 -13.140625 C 4.726562 -12.390625 3.582031 -12.015625 2.4375 -12.015625 C 1.476562 -12.015625 0.578125 -12.285156 -0.265625 -12.828125 Z M -0.265625 -12.828125 " />
            </g>
        </g>
    </g>
    <g fill="#000" fill-opacity="1">
        <g transform="translate(257.57798, 214.918711)">
            <g>
                <path
                    d="M -2.4375 -13.46875 C -2.132812 -14.300781 -1.546875 -15.140625 -0.671875 -15.984375 C 0.191406 -16.828125 1.769531 -18.125 4.0625 -19.875 C 3.644531 -21.925781 3.085938 -23.734375 2.390625 -25.296875 C 1.703125 -26.859375 1.175781 -28.664062 0.8125 -30.71875 C 0.75 -31.082031 0.703125 -31.410156 0.671875 -31.703125 C 0.640625 -32.003906 0.625 -32.304688 0.625 -32.609375 C 0.625 -34.898438 1.226562 -36.660156 2.4375 -37.890625 C 3.644531 -39.128906 5.09375 -39.75 6.78125 -39.75 C 8.101562 -39.75 9.394531 -39.390625 10.65625 -38.671875 C 11.320312 -38.367188 11.65625 -37.851562 11.65625 -37.125 C 11.65625 -36.820312 11.566406 -36.523438 11.390625 -36.234375 C 10.960938 -35.628906 10.414062 -35.328125 9.75 -35.328125 C 9.695312 -35.328125 9.59375 -35.34375 9.4375 -35.375 C 9.289062 -35.40625 9.125 -35.445312 8.9375 -35.5 C 8.15625 -35.925781 7.4375 -36.140625 6.78125 -36.140625 C 6.289062 -36.140625 5.894531 -36.019531 5.59375 -35.78125 C 5.300781 -35.539062 5.09375 -35.359375 4.96875 -35.234375 C 4.488281 -34.753906 4.25 -33.972656 4.25 -32.890625 C 4.25 -31.316406 4.640625 -29.503906 5.421875 -27.453125 C 6.203125 -25.410156 6.773438 -23.664062 7.140625 -22.21875 C 9.179688 -23.664062 11.269531 -24.988281 13.40625 -26.1875 C 15.550781 -27.394531 17.859375 -28.421875 20.328125 -29.265625 C 20.390625 -29.328125 20.597656 -29.359375 20.953125 -29.359375 C 21.742188 -29.359375 22.285156 -28.96875 22.578125 -28.1875 C 22.640625 -28.125 22.671875 -27.914062 22.671875 -27.5625 C 22.671875 -26.71875 22.25 -26.144531 21.40625 -25.84375 C 18.875 -25 16.507812 -23.925781 14.3125 -22.625 C 12.113281 -21.332031 9.960938 -19.90625 7.859375 -18.34375 C 7.921875 -18.15625 7.953125 -17.882812 7.953125 -17.53125 L 7.953125 -16.796875 C 7.953125 -13.785156 7.257812 -11.648438 5.875 -10.390625 C 4.488281 -9.128906 3.039062 -8.5 1.53125 -8.5 C 0.382812 -8.5 -0.601562 -8.8125 -1.4375 -9.4375 C -2.28125 -10.070312 -2.703125 -10.960938 -2.703125 -12.109375 C -2.703125 -12.585938 -2.613281 -13.039062 -2.4375 -13.46875 Z M 0.90625 -12.203125 C 1.207031 -11.953125 1.78125 -12.007812 2.625 -12.375 C 3.46875 -12.738281 4.007812 -13.765625 4.25 -15.453125 C 2.257812 -13.765625 1.144531 -12.679688 0.90625 -12.203125 Z M 0.90625 -12.203125 " />
            </g>
        </g>
    </g>
    <g fill="#000" fill-opacity="1">
        <g transform="translate(276.366975, 214.918711)">
            <g>
                <path
                    d="M -2.4375 -13.46875 C -2.132812 -14.300781 -1.546875 -15.140625 -0.671875 -15.984375 C 0.191406 -16.828125 1.769531 -18.125 4.0625 -19.875 C 3.644531 -21.925781 3.085938 -23.734375 2.390625 -25.296875 C 1.703125 -26.859375 1.175781 -28.664062 0.8125 -30.71875 C 0.75 -31.082031 0.703125 -31.410156 0.671875 -31.703125 C 0.640625 -32.003906 0.625 -32.304688 0.625 -32.609375 C 0.625 -34.898438 1.226562 -36.660156 2.4375 -37.890625 C 3.644531 -39.128906 5.09375 -39.75 6.78125 -39.75 C 8.101562 -39.75 9.394531 -39.390625 10.65625 -38.671875 C 11.320312 -38.367188 11.65625 -37.851562 11.65625 -37.125 C 11.65625 -36.820312 11.566406 -36.523438 11.390625 -36.234375 C 10.960938 -35.628906 10.414062 -35.328125 9.75 -35.328125 C 9.695312 -35.328125 9.59375 -35.34375 9.4375 -35.375 C 9.289062 -35.40625 9.125 -35.445312 8.9375 -35.5 C 8.15625 -35.925781 7.4375 -36.140625 6.78125 -36.140625 C 6.289062 -36.140625 5.894531 -36.019531 5.59375 -35.78125 C 5.300781 -35.539062 5.09375 -35.359375 4.96875 -35.234375 C 4.488281 -34.753906 4.25 -33.972656 4.25 -32.890625 C 4.25 -31.316406 4.640625 -29.503906 5.421875 -27.453125 C 6.203125 -25.410156 6.773438 -23.664062 7.140625 -22.21875 C 9.179688 -23.664062 11.269531 -24.988281 13.40625 -26.1875 C 15.550781 -27.394531 17.859375 -28.421875 20.328125 -29.265625 C 20.390625 -29.328125 20.597656 -29.359375 20.953125 -29.359375 C 21.742188 -29.359375 22.285156 -28.96875 22.578125 -28.1875 C 22.640625 -28.125 22.671875 -27.914062 22.671875 -27.5625 C 22.671875 -26.71875 22.25 -26.144531 21.40625 -25.84375 C 18.875 -25 16.507812 -23.925781 14.3125 -22.625 C 12.113281 -21.332031 9.960938 -19.90625 7.859375 -18.34375 C 7.921875 -18.15625 7.953125 -17.882812 7.953125 -17.53125 L 7.953125 -16.796875 C 7.953125 -13.785156 7.257812 -11.648438 5.875 -10.390625 C 4.488281 -9.128906 3.039062 -8.5 1.53125 -8.5 C 0.382812 -8.5 -0.601562 -8.8125 -1.4375 -9.4375 C -2.28125 -10.070312 -2.703125 -10.960938 -2.703125 -12.109375 C -2.703125 -12.585938 -2.613281 -13.039062 -2.4375 -13.46875 Z M 0.90625 -12.203125 C 1.207031 -11.953125 1.78125 -12.007812 2.625 -12.375 C 3.46875 -12.738281 4.007812 -13.765625 4.25 -15.453125 C 2.257812 -13.765625 1.144531 -12.679688 0.90625 -12.203125 Z M 0.90625 -12.203125 " />
            </g>
        </g>
    </g>
    <g fill="#000" fill-opacity="1">
        <g transform="translate(295.155969, 214.918711)">
            <g>
                <path
                    d="M 14.640625 18.609375 C 13.253906 21.617188 11.6875 23.832031 9.9375 25.25 C 8.1875 26.664062 6.59375 27.375 5.15625 27.375 C 3.882812 27.375 2.828125 26.859375 1.984375 25.828125 C 1.140625 24.804688 0.71875 23.332031 0.71875 21.40625 C 0.71875 18.519531 1.921875 14.679688 4.328125 9.890625 C 6.742188 5.097656 10.992188 -0.335938 17.078125 -6.421875 C 17.492188 -9.671875 17.789062 -12.90625 17.96875 -16.125 C 18.15625 -19.34375 18.25 -22.488281 18.25 -25.5625 C 16.320312 -21.46875 14.140625 -18.425781 11.703125 -16.4375 C 9.265625 -14.457031 7.050781 -13.46875 5.0625 -13.46875 C 3.488281 -13.46875 2.191406 -14.066406 1.171875 -15.265625 C 0.148438 -16.472656 -0.359375 -18.28125 -0.359375 -20.6875 C -0.359375 -22.375 -0.0546875 -24.347656 0.546875 -26.609375 C 1.148438 -28.867188 2.140625 -31.410156 3.515625 -34.234375 C 3.816406 -34.898438 4.332031 -35.234375 5.0625 -35.234375 C 5.664062 -35.234375 6.113281 -35.035156 6.40625 -34.640625 C 6.707031 -34.253906 6.859375 -33.820312 6.859375 -33.34375 C 6.859375 -32.976562 6.832031 -32.734375 6.78125 -32.609375 C 5.632812 -30.328125 4.757812 -28.113281 4.15625 -25.96875 C 3.550781 -23.832031 3.25 -22.015625 3.25 -20.515625 C 3.25 -17.921875 4.15625 -16.804688 5.96875 -17.171875 C 7.40625 -17.460938 8.890625 -18.4375 10.421875 -20.09375 C 11.960938 -21.75 13.410156 -23.914062 14.765625 -26.59375 C 16.117188 -29.28125 17.191406 -32.25 17.984375 -35.5 C 18.285156 -36.53125 18.914062 -36.984375 19.875 -36.859375 C 20.84375 -36.859375 21.382812 -36.316406 21.5 -35.234375 C 21.625 -33.910156 21.710938 -32.460938 21.765625 -30.890625 C 21.828125 -29.328125 21.859375 -27.644531 21.859375 -25.84375 C 21.859375 -23.488281 21.8125 -21 21.71875 -18.375 C 21.632812 -15.757812 21.441406 -13.097656 21.140625 -10.390625 C 24.035156 -13.222656 26.878906 -16.113281 29.671875 -19.0625 C 32.472656 -22.007812 34.957031 -25.171875 37.125 -28.546875 C 37.425781 -29.023438 37.910156 -29.265625 38.578125 -29.265625 C 39.054688 -29.265625 39.414062 -29.175781 39.65625 -29 C 40.195312 -28.632812 40.46875 -28.125 40.46875 -27.46875 C 40.46875 -27.164062 40.378906 -26.863281 40.203125 -26.5625 C 37.492188 -22.40625 34.390625 -18.582031 30.890625 -15.09375 L 20.515625 -4.703125 C 20.023438 -1.023438 19.3125 2.929688 18.375 7.171875 C 17.445312 11.421875 16.203125 15.234375 14.640625 18.609375 Z M 4.703125 23.40625 C 4.816406 23.695312 5.28125 23.707031 6.09375 23.4375 C 6.90625 23.164062 7.914062 22.289062 9.125 20.8125 C 10.332031 19.34375 11.566406 16.953125 12.828125 13.640625 C 14.085938 10.328125 15.203125 5.75 16.171875 -0.09375 C 13.578125 2.863281 11.539062 5.515625 10.0625 7.859375 C 8.59375 10.210938 7.46875 12.203125 6.6875 13.828125 C 5.84375 15.691406 5.253906 17.269531 4.921875 18.5625 C 4.585938 19.863281 4.421875 20.929688 4.421875 21.765625 C 4.421875 22.492188 4.515625 23.039062 4.703125 23.40625 Z M 4.703125 23.40625 " />
            </g>
        </g>
    </g>
    <g fill="#000" fill-opacity="1">
        <g transform="translate(171.328322, 231.569781)">
            <g>
                <path
                    d="M 4.375 0.171875 C 3.863281 0.171875 3.375 0.125 2.90625 0.03125 C 2.445312 -0.0625 2.023438 -0.203125 1.640625 -0.390625 C 1.242188 -0.578125 0.929688 -0.828125 0.703125 -1.140625 C 0.484375 -1.453125 0.375 -1.796875 0.375 -2.171875 C 0.375 -2.398438 0.425781 -2.609375 0.53125 -2.796875 C 0.644531 -2.992188 0.789062 -3.144531 0.96875 -3.25 C 1.15625 -3.351562 1.347656 -3.40625 1.546875 -3.40625 C 1.734375 -3.40625 1.90625 -3.351562 2.0625 -3.25 C 2.21875 -3.144531 2.34375 -3.007812 2.4375 -2.84375 C 2.53125 -2.675781 2.578125 -2.503906 2.578125 -2.328125 C 2.578125 -2.054688 2.5 -1.84375 2.34375 -1.6875 C 2.1875 -1.53125 1.960938 -1.429688 1.671875 -1.390625 C 1.984375 -1.171875 2.332031 -1.003906 2.71875 -0.890625 C 3.101562 -0.785156 3.582031 -0.734375 4.15625 -0.734375 C 5.125 -0.734375 5.828125 -0.96875 6.265625 -1.4375 C 6.492188 -1.6875 6.609375 -1.988281 6.609375 -2.34375 C 6.609375 -2.738281 6.476562 -3.066406 6.21875 -3.328125 C 6.09375 -3.441406 5.914062 -3.550781 5.6875 -3.65625 C 5.46875 -3.757812 5.222656 -3.851562 4.953125 -3.9375 C 4.640625 -4.019531 4.3125 -4.109375 3.96875 -4.203125 C 3.101562 -4.410156 2.410156 -4.660156 1.890625 -4.953125 C 1.367188 -5.242188 1.007812 -5.566406 0.8125 -5.921875 C 0.601562 -6.273438 0.5 -6.695312 0.5 -7.1875 C 0.5 -7.71875 0.65625 -8.191406 0.96875 -8.609375 C 1.289062 -9.023438 1.734375 -9.347656 2.296875 -9.578125 C 2.859375 -9.816406 3.5 -9.9375 4.21875 -9.9375 C 4.84375 -9.9375 5.46875 -9.835938 6.09375 -9.640625 C 6.445312 -9.523438 6.75 -9.382812 7 -9.21875 C 7.257812 -9.0625 7.46875 -8.863281 7.625 -8.625 C 7.789062 -8.375 7.875 -8.097656 7.875 -7.796875 C 7.875 -7.410156 7.773438 -7.097656 7.578125 -6.859375 C 7.378906 -6.628906 7.113281 -6.515625 6.78125 -6.515625 C 6.582031 -6.515625 6.398438 -6.550781 6.234375 -6.625 C 6.066406 -6.695312 5.929688 -6.800781 5.828125 -6.9375 C 5.734375 -7.082031 5.6875 -7.242188 5.6875 -7.421875 C 5.6875 -7.742188 5.769531 -7.992188 5.9375 -8.171875 C 6.101562 -8.347656 6.316406 -8.4375 6.578125 -8.4375 C 6.066406 -8.832031 5.335938 -9.03125 4.390625 -9.03125 C 3.972656 -9.03125 3.585938 -8.96875 3.234375 -8.84375 C 2.890625 -8.71875 2.609375 -8.539062 2.390625 -8.3125 C 2.160156 -8.0625 2.046875 -7.773438 2.046875 -7.453125 C 2.046875 -7.296875 2.0625 -7.160156 2.09375 -7.046875 C 2.125 -6.929688 2.179688 -6.816406 2.265625 -6.703125 C 2.359375 -6.566406 2.484375 -6.445312 2.640625 -6.34375 C 2.804688 -6.238281 3.03125 -6.132812 3.3125 -6.03125 C 3.59375 -5.925781 3.929688 -5.828125 4.328125 -5.734375 C 5.566406 -5.453125 6.492188 -5.117188 7.109375 -4.734375 C 7.390625 -4.554688 7.617188 -4.347656 7.796875 -4.109375 C 7.972656 -3.878906 8.097656 -3.640625 8.171875 -3.390625 C 8.234375 -3.148438 8.265625 -2.875 8.265625 -2.5625 C 8.265625 -2 8.113281 -1.507812 7.8125 -1.09375 C 7.507812 -0.6875 7.066406 -0.375 6.484375 -0.15625 C 5.898438 0.0625 5.195312 0.171875 4.375 0.171875 Z M 4.375 0.171875 " />
            </g>
        </g>
    </g>
    <g fill="#000" fill-opacity="1">
        <g transform="translate(185.277066, 231.569781)">
            <g>
                <path
                    d="M 2.40625 0 L 2.40625 -0.921875 L 3.90625 -0.921875 L 3.90625 -8.8125 L 1.4375 -8.8125 L 1.4375 -5.796875 L 0.21875 -5.796875 L 0.21875 -9.734375 L 9.0625 -9.734375 L 9.0625 -5.796875 L 7.859375 -5.796875 L 7.859375 -8.8125 L 5.4375 -8.8125 L 5.4375 -0.921875 L 6.984375 -0.921875 L 6.984375 0 Z M 2.40625 0 " />
            </g>
        </g>
    </g>
    <g fill="#000" fill-opacity="1">
        <g transform="translate(199.859469, 231.569781)">
            <g>
                <path
                    d="M 5.140625 0.171875 C 4.554688 0.171875 4.007812 0.078125 3.5 -0.109375 C 2.988281 -0.296875 2.550781 -0.554688 2.1875 -0.890625 C 1.832031 -1.210938 1.53125 -1.585938 1.28125 -2.015625 C 1.03125 -2.453125 0.84375 -2.910156 0.71875 -3.390625 C 0.601562 -3.867188 0.546875 -4.363281 0.546875 -4.875 C 0.546875 -5.925781 0.789062 -6.878906 1.28125 -7.734375 C 1.53125 -8.179688 1.835938 -8.566406 2.203125 -8.890625 C 2.566406 -9.210938 2.992188 -9.46875 3.484375 -9.65625 C 3.992188 -9.84375 4.546875 -9.9375 5.140625 -9.9375 C 5.722656 -9.9375 6.269531 -9.84375 6.78125 -9.65625 C 7.300781 -9.46875 7.738281 -9.207031 8.09375 -8.875 C 8.445312 -8.550781 8.75 -8.171875 9 -7.734375 C 9.25 -7.296875 9.4375 -6.835938 9.5625 -6.359375 C 9.675781 -5.878906 9.734375 -5.382812 9.734375 -4.875 C 9.734375 -3.820312 9.488281 -2.875 9 -2.03125 C 8.75 -1.582031 8.441406 -1.195312 8.078125 -0.875 C 7.722656 -0.550781 7.300781 -0.296875 6.8125 -0.109375 C 6.300781 0.078125 5.742188 0.171875 5.140625 0.171875 Z M 5.140625 -0.734375 C 5.597656 -0.734375 6.015625 -0.847656 6.390625 -1.078125 C 6.773438 -1.304688 7.09375 -1.625 7.34375 -2.03125 C 7.582031 -2.414062 7.765625 -2.851562 7.890625 -3.34375 C 8.015625 -3.832031 8.078125 -4.335938 8.078125 -4.859375 C 8.078125 -5.285156 8.035156 -5.695312 7.953125 -6.09375 C 7.878906 -6.5 7.757812 -6.875 7.59375 -7.21875 C 7.238281 -7.976562 6.765625 -8.503906 6.171875 -8.796875 C 5.859375 -8.953125 5.515625 -9.03125 5.140625 -9.03125 C 4.691406 -9.03125 4.273438 -8.914062 3.890625 -8.6875 C 3.515625 -8.457031 3.203125 -8.140625 2.953125 -7.734375 C 2.710938 -7.347656 2.523438 -6.910156 2.390625 -6.421875 C 2.265625 -5.929688 2.203125 -5.421875 2.203125 -4.890625 C 2.203125 -3.992188 2.363281 -3.203125 2.6875 -2.515625 C 2.863281 -2.148438 3.066406 -1.835938 3.296875 -1.578125 C 3.523438 -1.316406 3.796875 -1.113281 4.109375 -0.96875 C 4.429688 -0.8125 4.773438 -0.734375 5.140625 -0.734375 Z M 5.140625 -0.734375 " />
            </g>
        </g>
    </g>
    <g fill="#000" fill-opacity="1">
        <g transform="translate(215.43762, 231.569781)">
            <g>
                <path
                    d="M 8.296875 0.21875 C 8.035156 0.21875 7.796875 0.171875 7.578125 0.078125 C 7.367188 -0.015625 7.191406 -0.144531 7.046875 -0.3125 C 6.898438 -0.457031 6.769531 -0.660156 6.65625 -0.921875 C 6.550781 -1.191406 6.457031 -1.484375 6.375 -1.796875 C 6.289062 -2.148438 6.21875 -2.5 6.15625 -2.84375 C 6.113281 -3.09375 6.046875 -3.320312 5.953125 -3.53125 C 5.859375 -3.738281 5.757812 -3.894531 5.65625 -4 C 5.550781 -4.101562 5.441406 -4.191406 5.328125 -4.265625 C 5.210938 -4.335938 5.113281 -4.382812 5.03125 -4.40625 C 4.96875 -4.425781 4.90625 -4.4375 4.84375 -4.4375 L 3.3125 -4.4375 L 3.3125 -0.921875 L 4.78125 -0.921875 L 4.78125 0 L 0.21875 0 L 0.21875 -0.921875 L 1.78125 -0.921875 L 1.78125 -8.8125 L 0.21875 -8.8125 L 0.21875 -9.734375 L 4.234375 -9.734375 C 4.523438 -9.734375 4.765625 -9.726562 4.953125 -9.71875 C 5.140625 -9.71875 5.382812 -9.703125 5.6875 -9.671875 C 6.039062 -9.640625 6.332031 -9.59375 6.5625 -9.53125 C 6.789062 -9.46875 7.050781 -9.375 7.34375 -9.25 C 7.613281 -9.125 7.828125 -8.972656 7.984375 -8.796875 C 8.148438 -8.617188 8.285156 -8.390625 8.390625 -8.109375 C 8.503906 -7.835938 8.5625 -7.523438 8.5625 -7.171875 C 8.5625 -6.410156 8.328125 -5.847656 7.859375 -5.484375 C 7.628906 -5.304688 7.378906 -5.160156 7.109375 -5.046875 C 6.835938 -4.941406 6.515625 -4.847656 6.140625 -4.765625 C 6.390625 -4.710938 6.597656 -4.640625 6.765625 -4.546875 C 6.941406 -4.460938 7.085938 -4.347656 7.203125 -4.203125 C 7.304688 -4.054688 7.390625 -3.898438 7.453125 -3.734375 C 7.523438 -3.578125 7.597656 -3.367188 7.671875 -3.109375 C 7.722656 -2.898438 7.800781 -2.550781 7.90625 -2.0625 C 7.9375 -1.914062 7.976562 -1.765625 8.03125 -1.609375 C 8.082031 -1.453125 8.132812 -1.332031 8.1875 -1.25 C 8.238281 -1.15625 8.304688 -1.078125 8.390625 -1.015625 C 8.484375 -0.953125 8.582031 -0.921875 8.6875 -0.921875 C 9.132812 -0.921875 9.359375 -1.328125 9.359375 -2.140625 L 9.359375 -3.046875 L 10.234375 -3.046875 L 10.234375 -2.09375 C 10.234375 -0.550781 9.585938 0.21875 8.296875 0.21875 Z M 4.125 -5.40625 C 4.8125 -5.40625 5.367188 -5.457031 5.796875 -5.5625 C 6.234375 -5.664062 6.570312 -5.835938 6.8125 -6.078125 C 7.0625 -6.316406 7.1875 -6.640625 7.1875 -7.046875 C 7.1875 -7.398438 7.125 -7.691406 7 -7.921875 C 6.875 -8.148438 6.675781 -8.332031 6.40625 -8.46875 C 6.144531 -8.59375 5.832031 -8.679688 5.46875 -8.734375 C 5.101562 -8.785156 4.632812 -8.8125 4.0625 -8.8125 L 3.3125 -8.8125 L 3.3125 -5.40625 Z M 4.125 -5.40625 " />
            </g>
        </g>
    </g>
    <g fill="#000" fill-opacity="1">
        <g transform="translate(230.976979, 231.569781)">
            <g>
                <path
                    d="M 0.21875 0 L 0.21875 -0.921875 L 1.8125 -0.921875 L 1.8125 -8.8125 L 0.21875 -8.8125 L 0.21875 -9.734375 L 9.015625 -9.734375 L 9.015625 -5.984375 L 7.84375 -5.984375 L 7.84375 -8.8125 L 3.328125 -8.8125 L 3.328125 -5.3125 L 5.734375 -5.3125 L 5.734375 -6.90625 L 6.59375 -6.90625 L 6.59375 -2.890625 L 5.734375 -2.890625 L 5.734375 -4.578125 L 3.328125 -4.578125 L 3.328125 -0.921875 L 7.84375 -0.921875 L 7.84375 -3.6875 L 9.015625 -3.6875 L 9.015625 0 Z M 0.21875 0 " />
            </g>
        </g>
    </g>
</svg>